{"title":"Wall Street 2 Money.Never.Sleeps.2010.480p..BRRip.H264.Feel-Free","uid":5971345,"size":1926422520,"categoryP":"video","categoryS":"movies","magnet":"?xt=urn:btih:905da613a071ebd385e326e6115b2e5db3077b13&amp;dn=Wall+Street+2+Money.Never.Sleeps.2010.480p..BRRip.H264.Feel-Free&amp;tr=udp%3A%2F%2Ftracker.openbittorrent.com%3A80&amp;tr=udp%3A%2F%2Fopen.demonii.com%3A1337&amp;tr=udp%3A%2F%2Ftracker.coppersurfer.tk%3A6969&amp;tr=udp%3A%2F%2Fexodus.desync.com%3A6969","seeders":1,"leechers":0,"uploader":"neon","files":9,"time":1290294038,"description":"Genre:Drama\nLanguage:English\n &lt;a href=&quot; http://www.imdb.com/title/tt1027718/&quot; rel=&quot;nofollow&quot; target=&quot;_NEW&quot;&gt; http://www.imdb.com/title/tt1027718/&lt;/a&gt;\nSource:720p.BluRay.x264.DTS-HDChina\n\nGeneral\nComplete name :Wall.Street.2.Money.Never.Sleeps.2010.480p..BRRip.H264.Feel-Free\nFormat : MPEG-4\nFormat profile : Base Media\nCodec ID : mp42\nFile size : 1.79 GiB\nDuration : 2h 12mn\nOverall bit rate : 1 930 Kbps\nVideo #1\nCodec ID : avc1\nCodec ID/Info : Advanced Video Coding\nDuration : 2h 12mn\nBit rate mode : Variable\nBit rate : 1 448 Kbps\nWidth : 720 pixels\nHeight : 304 pixels\nDisplay aspect ratio : 2.35:1\nFrame rate mode : Constant\nFrame rate : 23.976 fps\nResolution : 24 bits\nColorimetry : 4:2:0\nScan type : Progressive\nBits/(Pixel*Frame) : 0.276\nStream size : 1.35 GiB (75%)\nAudio #2\nID : 2\nFormat : AAC\nFormat/Info : Advanced Audio Codec\nFormat version : Version 4\nFormat profile : LC\nFormat settings, SBR : No\nCodec ID : 40\nDuration : 2h 12mn\nBit rate mode : Constant\nBit rate : 477 Kbps\nNominal bit rate : 480 Kbps\nChannel(s) : 6 channels\nChannel positions : Front: L C R, Rear: L R, LFE\nSampling rate : 48.0 KHz\nResolution : 16 bits\nStream size : 454 MiB (25%)\nPlot:\nAs the global economy teeters on the brink of disaster, a young Wall Street trader partners with disgraced former Wall Street corporate raider Gordon Gekko on a two-tiered mission: To alert the financial community to the coming doom, and to find out who was responsible for the death of the young trader's mentor\n\n","torrent":{"xt":"urn:btih:905da613a071ebd385e326e6115b2e5db3077b13","amp;dn":"Wall+Street+2+Money.Never.Sleeps.2010.480p..BRRip.H264.Feel-Free","amp;tr":["udp%3A%2F%2Ftracker.openbittorrent.com%3A80","udp%3A%2F%2Fopen.demonii.com%3A1337","udp%3A%2F%2Ftracker.coppersurfer.tk%3A6969","udp%3A%2F%2Fexodus.desync.com%3A6969"],"infoHash":"905da613a071ebd385e326e6115b2e5db3077b13","infoHashBuffer":{"type":"Buffer","data":[144,93,166,19,160,113,235,211,133,227,38,230,17,91,46,93,179,7,123,19]},"announce":[],"urlList":[]}}